<svg width="787" height="122" viewBox="0 0 787 122" fill="none" xmlns="http://www.w3.org/2000/svg">
<path d="M786.999 12.9606C767.211 12.9606 767.211 0.937744 747.674 0.937744C727.886 0.937744 727.887 12.9606 708.349 12.9606C688.562 12.9606 688.562 0.937744 669.024 0.937744C649.237 0.937744 649.237 12.9606 629.7 12.9606C610.162 12.9606 609.912 0.937744 590.375 0.937744C570.587 0.937744 570.587 12.9606 551.05 12.9606C531.262 12.9606 531.262 0.937744 511.725 0.937744C492.188 0.937744 491.937 12.9606 472.4 12.9606C452.613 12.9606 452.613 0.937744 433.075 0.937744C413.288 0.937744 413.288 12.9606 393.75 12.9606C373.963 12.9606 373.963 0.937744 354.426 0.937744C334.638 0.937744 334.638 12.9606 315.101 12.9606C295.564 12.9606 295.313 0.937744 275.776 0.937744C255.988 0.937744 255.988 12.9606 236.451 12.9606C216.663 12.9606 216.663 0.937744 197.126 0.937744C177.339 0.937744 177.339 12.9606 157.801 12.9606C138.014 12.9606 138.014 0.937744 118.477 0.937744C98.9393 0.937744 98.6889 12.9606 79.1517 12.9606C59.364 12.9606 59.364 0.937744 39.8268 0.937744C20.0391 0.937744 20.0391 12.9606 0.501953 12.9606V121.418H788.502L786.999 12.9606Z" fill="black"/>
</svg>
