<svg width="787" height="132" viewBox="0 0 787 132" fill="none" xmlns="http://www.w3.org/2000/svg">
<path d="M787 26.8766C767.212 26.8766 767.212 0.576416 747.675 0.576416C727.887 0.576416 727.887 26.8766 708.35 26.8766C688.562 26.8766 688.562 0.576416 669.025 0.576416C649.237 0.576416 649.237 26.8766 629.7 26.8766C609.912 26.8766 609.912 0.576416 590.375 0.576416C570.588 0.576416 570.588 26.8766 551.05 26.8766C531.263 26.8766 531.263 0.576416 511.725 0.576416C491.938 0.576416 491.938 26.8766 472.401 26.8766C452.613 26.8766 452.613 0.576416 433.076 0.576416C413.288 0.576416 413.288 26.8766 393.751 26.8766C373.963 26.8766 373.963 0.576416 354.426 0.576416C334.638 0.576416 334.638 26.8766 315.101 26.8766C295.314 26.8766 295.314 0.576416 275.776 0.576416C255.989 0.576416 255.989 26.8766 236.452 26.8766C216.914 26.8766 216.664 0.576416 197.127 0.576416C177.339 0.576416 177.339 26.8766 157.802 26.8766C138.014 26.8766 138.014 0.576416 118.477 0.576416C98.9398 0.576416 98.6893 26.8766 79.1521 26.8766C59.3645 26.8766 59.3645 0.576416 39.8273 0.576416C20.0396 0.576416 20.0396 26.8766 0.50243 26.8766H0.251953V131.075H788.252V26.8766H787Z" fill="black"/>
</svg>
