<svg width="788" height="139" viewBox="0 0 788 139" fill="none" xmlns="http://www.w3.org/2000/svg">
<path d="M788 53.8024C777.73 53.8024 773.973 44.5348 773.973 44.5348C773.973 44.5348 762.952 11.4717 762.952 11.2213C760.698 5.20979 755.188 1.20215 748.675 1.20215C737.905 1.20215 734.398 11.2213 734.398 11.2213C734.398 11.2213 723.627 43.7834 723.377 44.0338C721.123 49.7948 715.612 53.8024 709.1 53.8024C698.079 53.8024 695.073 44.5348 695.073 44.5348C695.073 44.5348 684.052 11.4717 684.052 11.2213C681.798 5.20979 676.287 1.20215 669.775 1.20215C659.004 1.20215 655.498 11.2213 655.498 11.2213C655.498 11.2213 644.727 43.7834 644.477 44.0338C642.222 49.7948 636.712 53.8024 630.2 53.8024C620.181 53.8024 616.423 44.5348 616.423 44.5348C616.423 44.5348 605.402 11.4717 605.402 11.2213C603.148 5.20979 597.638 1.20215 591.125 1.20215C580.355 1.20215 576.848 11.2213 576.848 11.2213C576.848 11.2213 566.078 43.7834 565.827 44.0338C563.573 49.7948 558.062 53.8024 551.55 53.8024C540.529 53.8024 537.523 44.5348 537.523 44.5348C537.523 44.5348 526.502 11.4717 526.502 11.2213C524.248 5.20979 518.737 1.20215 512.225 1.20215C501.455 1.20215 497.948 11.2213 497.948 11.2213C497.948 11.2213 487.177 43.7834 486.927 44.0338C484.673 49.7948 479.162 53.8024 472.65 53.8024C461.629 53.8024 458.873 44.7852 458.873 44.7852C458.873 44.7852 447.602 11.2212 447.602 10.9708C445.348 4.9593 439.837 0.95166 433.325 0.95166C422.554 0.95166 419.048 10.9708 419.048 10.9708C419.048 10.9708 408.277 43.5329 408.027 43.7833C405.772 49.5443 400.262 53.5519 393.75 53.5519C382.729 53.5519 379.723 44.2843 379.723 44.2843C379.723 44.2843 368.702 11.2212 368.702 10.9708C366.448 4.9593 360.937 0.95166 354.425 0.95166C343.654 0.95166 340.147 10.9708 340.147 10.9708C340.147 10.9708 329.377 43.5329 329.126 43.7833C326.872 49.5443 321.362 53.5519 314.849 53.5519C304.58 53.5519 300.823 44.2843 300.823 44.2843C300.823 44.2843 289.802 11.2212 289.802 10.9708C287.547 4.9593 282.037 0.95166 275.524 0.95166C264.754 0.95166 261.247 10.9708 261.247 10.9708C261.247 10.9708 250.477 43.5329 250.226 43.7833C247.972 49.5443 242.462 53.5519 235.949 53.5519C224.928 53.5519 221.922 44.2843 221.922 44.2843C221.922 44.2843 210.901 11.2212 210.901 10.9708C208.647 4.9593 203.137 0.95166 196.624 0.95166C185.854 0.95166 182.347 10.9708 182.347 10.9708C182.347 10.9708 171.577 43.5329 171.326 43.7833C169.072 49.5443 163.561 53.5519 157.049 53.5519C147.03 53.5519 143.273 44.2843 143.273 44.2843C143.273 44.2843 132.753 11.4717 132.502 11.2213C130.248 5.20979 124.737 1.20215 118.225 1.20215C107.455 1.20215 103.948 11.2213 103.948 11.2213C103.948 11.2213 93.1774 43.7834 92.9269 44.0338C90.6726 49.7948 85.1621 53.8024 78.6497 53.8024C67.6287 53.8024 64.623 44.5348 64.623 44.5348C64.623 44.5348 53.602 11.4717 53.602 11.2213C51.3477 5.20979 45.8373 1.20215 39.3249 1.20215C28.5544 1.20215 25.0477 11.2213 25.0477 11.2213C25.0477 11.2213 14.2772 43.7834 14.0267 44.0338C11.7724 50.0453 6.5124 53.8024 0 53.8024V138.965H788V53.8024Z" fill="black"/>
</svg>
