<svg width="788" height="128" viewBox="0 0 788 128" fill="none" xmlns="http://www.w3.org/2000/svg">
<path d="M788 28.3042C770.216 28.3042 755.188 17.0327 748.675 1.00217C742.163 17.0327 726.884 28.3042 709.35 28.3042C691.566 28.3042 676.538 17.0327 670.025 1.00217C663.513 17.0327 648.234 28.3042 630.701 28.3042C612.917 28.3042 597.888 17.0327 591.376 1.00217C584.863 17.0327 569.584 28.3042 552.051 28.3042C534.267 28.3042 519.238 17.0327 512.726 1.00217C506.214 17.0327 490.935 28.3042 473.401 28.3042C455.617 28.3042 440.589 17.0327 434.076 1.00217C427.564 17.0327 412.285 28.3042 394.751 28.3042C376.968 28.3042 361.939 17.0327 355.427 1.00217C348.914 17.0327 333.635 28.3042 316.102 28.3042C298.318 28.3042 283.289 17.0327 276.777 1.00217C269.263 16.2813 254.234 27.5528 236.45 27.5528C218.666 27.5528 203.638 16.2813 197.125 0.250732C190.613 16.2813 175.334 27.5528 157.55 27.5528C139.766 27.5528 124.737 16.2813 118.225 0.250732C111.713 16.2813 96.4336 27.5528 78.9002 27.5528C61.1163 27.5528 46.0877 16.2813 39.5753 0.250732C32.8125 16.0308 17.7839 27.3023 0 27.3023V126.491L788 127.744V28.3042Z" fill="black"/>
</svg>
